<svg id="OBJECTS" xmlns="http://www.w3.org/2000/svg" viewBox="0 0 72.64 72.64"><defs><style>.cls-1{fill:#ffb624;}.cls-2{fill:#0a5eb9;}</style></defs><title>login-circle-shape</title><circle class="cls-1" cx="181.27" cy="130.44" r="36.32" transform="translate(-122.68 193.14) rotate(-80.34)"/><path class="cls-2" d="M180.24,162.25c-.7,0-1.42-.06-2.12-.13l.11-1.07c.67.07,1.36.12,2.05.14Zm2.13,0,0-1.07c.68,0,1.37-.06,2-.13l.11,1.06C183.79,162.18,183.07,162.23,182.37,162.25Zm-6.36-.41c-.7-.12-1.4-.26-2.08-.42l.24-1c.67.16,1.34.29,2,.4Zm10.59,0-.18-1.06c.67-.11,1.35-.25,2-.4l.25,1C188,161.57,187.29,161.71,186.6,161.83Zm-14.72-1c-.68-.21-1.36-.44-2-.69l.39-1c.64.24,1.29.47,1.94.67Zm18.85,0-.32-1c.65-.2,1.31-.43,1.94-.67l.39,1C192.08,160.4,191.4,160.63,190.73,160.84Zm-22.83-1.5c-.64-.3-1.28-.62-1.9-1l.52-.94q.9.5,1.83.93Zm26.79,0-.45-1c.62-.28,1.23-.6,1.83-.93l.52.94C196,158.69,195.33,159,194.69,159.31Zm-30.52-2c-.59-.38-1.18-.78-1.75-1.2l.63-.86c.55.4,1.12.8,1.7,1.16Zm34.24,0-.57-.89c.57-.37,1.14-.76,1.69-1.17l.63.86C199.59,156.48,199,156.88,198.41,157.26Zm-37.66-2.49c-.54-.45-1.07-.93-1.58-1.42l.74-.77c.49.47,1,.94,1.53,1.38Zm41.08,0-.69-.81c.52-.44,1-.91,1.52-1.38l.75.76C202.9,153.81,202.37,154.29,201.83,154.74Zm-44.14-2.92c-.47-.52-.94-1.07-1.37-1.62l.83-.66c.43.53.87,1.06,1.33,1.56Zm47.19,0-.79-.72c.46-.51.91-1,1.33-1.57l.84.66C205.82,150.72,205.36,151.26,204.88,151.79Zm-49.83-3.3c-.4-.58-.79-1.18-1.15-1.79l.92-.54c.35.58.72,1.16,1.11,1.73Zm52.47,0-.88-.6q.59-.85,1.11-1.74l.92.55C208.31,147.26,207.92,147.87,207.52,148.45Zm-54.64-3.61c-.32-.62-.62-1.27-.9-1.92l1-.42q.4.94.87,1.86Zm56.81-.05-.95-.48c.31-.61.6-1.24.86-1.86l1,.41C210.31,143.51,210,144.16,209.69,144.79Zm-58.48-3.85c-.23-.67-.44-1.35-.63-2l1-.28c.18.65.39,1.31.61,2Zm60.14-.06-1-.35c.23-.65.43-1.31.61-2l1,.28C211.79,139.52,211.58,140.21,211.35,140.88Zm-61.26-4c-.15-.69-.27-1.39-.36-2.09l1.06-.15c.09.68.2,1.36.34,2Zm62.38-.06-1.05-.22c.14-.66.25-1.34.34-2l1.06.14C212.73,135.38,212.61,136.09,212.47,136.78Zm-63-4.15c0-.7-.07-1.42-.07-2.12h1.07c0,.69,0,1.38.07,2.06Zm63.52-.07-1.06-.07c0-.68.06-1.37.06-2.05v-.13h1.07v.14C213.1,131.15,213.08,131.86,213,132.56Zm-62.46-4.11-1.06-.07c0-.7.11-1.41.2-2.11l1.06.14C150.68,127.08,150.62,127.77,150.57,128.45Zm61.39-.19c-.05-.68-.12-1.37-.21-2l1.05-.14c.1.7.17,1.41.22,2.11Zm-60.86-3.88-1-.21c.14-.69.3-1.39.48-2.07l1,.28C151.4,123,151.24,123.71,151.1,124.38Zm60.3-.19c-.14-.67-.3-1.34-.48-2l1-.28c.19.68.36,1.37.5,2.06Zm-59.22-3.78-1-.34c.23-.67.49-1.34.76-2l1,.41C152.65,119.12,152.4,119.77,152.18,120.41Zm58.12-.18c-.23-.64-.48-1.28-.75-1.91l1-.42c.27.65.53,1.31.77,2Zm-56.52-3.6-1-.48c.32-.63.66-1.26,1-1.87l.92.54C154.41,115.41,154.08,116,153.78,116.63Zm54.9-.17c-.31-.6-.64-1.21-1-1.79l.91-.55c.37.61.71,1.23,1,1.86Zm-52.81-3.37-.88-.61c.4-.58.82-1.16,1.25-1.71l.84.66C156.66,112,156.25,112.52,155.87,113.09Zm50.7-.15c-.38-.56-.8-1.12-1.22-1.65l.84-.66c.43.55.86,1.12,1.26,1.7Zm-48.16-3.08-.8-.72c.48-.52,1-1,1.48-1.53l.74.77C159.34,108.85,158.86,109.35,158.41,109.86Zm45.61-.13q-.69-.77-1.44-1.47l.74-.77c.51.49,1,1,1.49,1.52ZM161.35,107l-.69-.82c.54-.46,1.1-.9,1.67-1.32l.63.86C162.42,106.12,161.88,106.55,161.35,107Zm39.7-.12c-.52-.44-1.06-.86-1.61-1.27l.63-.86c.57.42,1.13.86,1.67,1.31Zm-36.4-2.33-.58-.9c.6-.38,1.21-.75,1.83-1.09l.51.94C165.82,103.83,165.22,104.18,164.65,104.55Zm33.09-.1c-.58-.36-1.17-.71-1.77-1l.51-.94c.62.34,1.24.7,1.83,1.08Zm-29.5-1.89-.45-1c.64-.3,1.3-.58,2-.84l.39,1C169.5,102,168.86,102.27,168.24,102.56Zm25.89-.07c-.62-.29-1.26-.56-1.9-.8l.39-1c.65.25,1.32.53,2,.83Zm-22.06-1.41-.32-1c.67-.21,1.36-.4,2.05-.57l.25,1C173.39,100.69,172.72,100.87,172.07,101.08Zm18.22-.06c-.65-.2-1.32-.38-2-.54l.25-1c.69.17,1.38.35,2,.56Zm-14.23-.9-.18-1.06c.69-.11,1.4-.21,2.11-.28l.11,1.06C177.41,99.91,176.73,100,176.06,100.12Zm10.23,0c-.67-.11-1.36-.19-2-.26l.1-1.06c.71.06,1.42.16,2.11.27Zm-6.14-.38,0-1.07c.7,0,1.42,0,2.12,0l0,1.07C181.52,99.67,180.83,99.67,180.15,99.7Z" transform="translate(-144.95 -94.12)"/></svg>