<svg xmlns="http://www.w3.org/2000/svg" xmlns:xlink="http://www.w3.org/1999/xlink" viewBox="0 0 71.01 64.88"><defs><style>.cls-1{fill:url(#linear-gradient);}</style><linearGradient id="linear-gradient" x1="6.92" y1="64.61" x2="49.05" y2="-8.85" gradientUnits="userSpaceOnUse"><stop offset="0" stop-color="#5dc9ff"/><stop offset="0.5" stop-color="#639af5"/><stop offset="0.98" stop-color="#595eff"/></linearGradient></defs><title>Asset 1</title><g id="Layer_2" data-name="Layer 2"><g id="Layer_1-2" data-name="Layer 1"><path class="cls-1" d="M30.85,64.85a14.08,14.08,0,0,1-11.19-7C19.49,57.53.9,24.31.9,24.31a7,7,0,0,1,.08-7,7.3,7.3,0,0,1,6.34-3.48H22.41a8,8,0,0,1,7,4.11l2.31,4.17,9.92-18a8,8,0,0,1,7-4.12h15.1A7.33,7.33,0,0,1,70,3.46a7,7,0,0,1,.1,7S43.85,57.88,43.73,58.08A13.72,13.72,0,0,1,30.85,64.85Zm-6-10.63A7.41,7.41,0,0,0,27.22,57,7.82,7.82,0,0,0,32,58.6a7.38,7.38,0,0,0,6.31-3.71l0,0,0-.09.14-.24a7.73,7.73,0,0,0-.14-7.38l-6.68-12-6.64,12a7.65,7.65,0,0,0-.27,7A.54.54,0,0,1,24.85,54.22ZM35.29,28.6S44,44.36,44.09,44.48L64.63,7.4A.75.75,0,0,0,64,6.28H48.59a1.69,1.69,0,0,0-1.48.87Z"/></g></g></svg>