<svg xmlns="http://www.w3.org/2000/svg" xmlns:xlink="http://www.w3.org/1999/xlink" viewBox="0 0 285.18 64.88"><defs><style>.cls-1{fill:#44474c;}.cls-2{fill:url(#linear-gradient);}</style><linearGradient id="linear-gradient" x1="6.92" y1="18.23" x2="49.05" y2="91.69" gradientTransform="matrix(1, 0, 0, -1, 0, 82.84)" gradientUnits="userSpaceOnUse"><stop offset="0" stop-color="#5dc9ff"/><stop offset="0.5" stop-color="#639af5"/><stop offset="1" stop-color="#595eff"/></linearGradient></defs><title>Asset 6</title><g id="Layer_2" data-name="Layer 2"><g id="Layer_1-2" data-name="Layer 1"><path class="cls-1" d="M81.27,34.78H72.76a.7.7,0,0,0-.7.7V62.61a.7.7,0,0,0,.7.7h8.51a.7.7,0,0,0,.7-.7V35.48A.7.7,0,0,0,81.27,34.78Z"/><path class="cls-1" d="M106.26,34.13a13.39,13.39,0,0,0-4.66.81,9.83,9.83,0,0,0-3.32,2,.36.36,0,0,1-.59-.2l-.26-1.42a.7.7,0,0,0-.69-.58H89.43a.7.7,0,0,0-.71.7V62.61a.7.7,0,0,0,.71.7h8.5a.7.7,0,0,0,.7-.7V46.87a9.3,9.3,0,0,1,.3-2.59,4.08,4.08,0,0,1,.79-1.55,2.51,2.51,0,0,1,1.2-.74,6.14,6.14,0,0,1,1.52-.19,3.12,3.12,0,0,1,2.4.87,4.7,4.7,0,0,1,.82,3.16V62.61a.7.7,0,0,0,.7.7h8.5a.7.7,0,0,0,.71-.7V43.87c0-3.19-.85-5.61-2.53-7.27A9.29,9.29,0,0,0,106.26,34.13Z"/><path class="cls-1" d="M145.13,37.88a10,10,0,0,0-3.89-2.72,16.43,16.43,0,0,0-6.29-1,16.72,16.72,0,0,0-6.7,1.18A11,11,0,0,0,124,38.45a11.78,11.78,0,0,0-2.2,4.71,25.86,25.86,0,0,0-.63,5.83v1.09a20.75,20.75,0,0,0,.74,5.72,11.07,11.07,0,0,0,2.37,4.38,10.4,10.4,0,0,0,4.33,2.8,19.28,19.28,0,0,0,6.61,1c.87,0,1.79,0,2.75-.11s1.9-.17,2.81-.3,1.76-.27,2.56-.43c.61-.13,1.15-.26,1.61-.39a.71.71,0,0,0,.48-.54l1-5.18a.69.69,0,0,0-.8-.83c-1.13.18-2.26.32-3.41.43a42.87,42.87,0,0,1-4.3.22,18.32,18.32,0,0,1-3.35-.25,5.93,5.93,0,0,1-2.21-.81,3.45,3.45,0,0,1-1.28-1.5,8.23,8.23,0,0,1-.57-2.29h13.29a5.32,5.32,0,0,0,3.07-.62c.53-.42.79-1.34.79-2.75V46.32a18.13,18.13,0,0,0-.57-4.55A9.8,9.8,0,0,0,145.13,37.88Zm-6.26,8.39h-8.44q.16-5.18,4.47-5.17c2.64,0,4,1.45,4,4.35Z"/><path class="cls-1" d="M174.28,23.31q-.79-.24-2-.48a23.9,23.9,0,0,0-4.73-.36,14.73,14.73,0,0,0-5.67,1,10.47,10.47,0,0,0-3.81,2.64A10.34,10.34,0,0,0,155.94,30a16.58,16.58,0,0,0-.67,4.08.71.71,0,0,1-.7.69h-2.79a.71.71,0,0,0-.69.6l-.83,5.78A.7.7,0,0,0,151,42h3.55a.7.7,0,0,1,.7.7V62.61a.7.7,0,0,0,.71.7h8.5a.7.7,0,0,0,.7-.7V42.67a.7.7,0,0,1,.71-.7h5.55a.7.7,0,0,0,.69-.61l.83-5.78a.69.69,0,0,0-.69-.8h-6.36a.71.71,0,0,1-.71-.74,11.79,11.79,0,0,1,.12-1.25,3.55,3.55,0,0,1,.6-1.55,3.28,3.28,0,0,1,1.25-1,5,5,0,0,1,2.1-.38,17.83,17.83,0,0,1,2.15.11c.38.05.8.13,1.26.23a.71.71,0,0,0,.84-.52l1.31-5.5A.69.69,0,0,0,174.28,23.31Z"/><path class="cls-1" d="M200.45,38.35a10.78,10.78,0,0,0-4.27-3.08,21,21,0,0,0-13.64,0,10.6,10.6,0,0,0-4.22,3.08,11,11,0,0,0-2.15,4.43,22.63,22.63,0,0,0-.6,5.29v1.85a21.94,21.94,0,0,0,.63,5.31,11.4,11.4,0,0,0,2.17,4.46,10.87,10.87,0,0,0,4.25,3.1,20.37,20.37,0,0,0,13.61,0,11.13,11.13,0,0,0,4.28-3.1,11.31,11.31,0,0,0,2.2-4.46,21.94,21.94,0,0,0,.63-5.31V48.07a21.12,21.12,0,0,0-.65-5.29A11.4,11.4,0,0,0,200.45,38.35ZM193.32,51c0,2.14-.32,3.59-.95,4.35a3.52,3.52,0,0,1-2.86,1.14,6,6,0,0,1-1.66-.21,2.44,2.44,0,0,1-1.23-.85,4.58,4.58,0,0,1-.76-1.69,11.41,11.41,0,0,1-.27-2.75V47c0-2.11.34-3.54,1-4.31a3.77,3.77,0,0,1,2.94-1.14,3.41,3.41,0,0,1,2.84,1.17c.61.78.92,2.21.92,4.28v4Z"/><path class="cls-1" d="M229.55,34.86c-.52-.15-1-.26-1.3-.33a11.6,11.6,0,0,0-2-.13,10.61,10.61,0,0,0-4.76.92,11.8,11.8,0,0,0-2.57,1.74.35.35,0,0,1-.58-.2l-.3-1.52a.72.72,0,0,0-.69-.56H210a.7.7,0,0,0-.7.7V62.61a.7.7,0,0,0,.7.7h8.51a.7.7,0,0,0,.7-.7V48.17a7.17,7.17,0,0,1,1.22-4.49c.82-1,2.28-1.55,4.39-1.55a10.37,10.37,0,0,1,2.12.19c.3.06.58.13.83.2a.71.71,0,0,0,.86-.54L230,35.69A.71.71,0,0,0,229.55,34.86Z"/><path class="cls-1" d="M254.14,35.3l-.68-.17-1.93-.41c-.73-.14-1.51-.26-2.35-.35a23.68,23.68,0,0,0-2.56-.14,20.1,20.1,0,0,0-6.67,1A11.62,11.62,0,0,0,235.49,38,10.48,10.48,0,0,0,233,42.21a18.5,18.5,0,0,0-.76,5.47v2.51a22.76,22.76,0,0,0,.63,5.55,9.75,9.75,0,0,0,6.34,7.11,18.32,18.32,0,0,0,6.53,1,24,24,0,0,0,4.09-.33c1.09-.19,2.08-.4,2.95-.64a.7.7,0,0,0,.5-.56l.94-5.28a.7.7,0,0,0-.78-.82c-.64.1-1.29.17-1.95.22-1,.07-1.95.11-2.86.11a6.89,6.89,0,0,1-4.82-1.44q-1.55-1.44-1.55-5V47.41c0-2.1.45-3.61,1.36-4.52s2.4-1.36,4.46-1.36a16.54,16.54,0,0,1,2.7.19c.53.1,1.13.24,1.82.43a.71.71,0,0,0,.87-.53l1.18-5.49A.71.71,0,0,0,254.14,35.3Z"/><path class="cls-1" d="M284.6,41.78a9.88,9.88,0,0,0-2-3.9,10.12,10.12,0,0,0-3.9-2.72,16.44,16.44,0,0,0-6.29-1,16.68,16.68,0,0,0-6.69,1.17,10.89,10.89,0,0,0-4.25,3.15,11.79,11.79,0,0,0-2.21,4.71,26.46,26.46,0,0,0-.62,5.83v1.09a20.71,20.71,0,0,0,.73,5.72,11.07,11.07,0,0,0,2.37,4.38,10.4,10.4,0,0,0,4.33,2.8,19.34,19.34,0,0,0,6.62,1c.87,0,1.78,0,2.75-.11s1.89-.17,2.8-.29,1.76-.28,2.56-.44q.92-.19,1.62-.39a.73.73,0,0,0,.48-.54L284,57a.71.71,0,0,0-.81-.83c-1.12.18-2.26.32-3.41.43a42.87,42.87,0,0,1-4.3.22,19.46,19.46,0,0,1-3.35-.24,6.05,6.05,0,0,1-2.2-.82,3.38,3.38,0,0,1-1.28-1.5A7.88,7.88,0,0,1,268,52h13.29a5.28,5.28,0,0,0,3.08-.62c.52-.42.79-1.34.79-2.75V46.32A18.05,18.05,0,0,0,284.6,41.78Zm-8.25,4.49h-8.44q.16-5.18,4.47-5.17,4,0,4,4.35Z"/><circle class="cls-1" cx="77.02" cy="24.81" r="5.63"/><path class="cls-2" d="M30.85,64.85a14.08,14.08,0,0,1-11.19-7C19.49,57.53.9,24.31.9,24.31a7,7,0,0,1,.08-7,7.3,7.3,0,0,1,6.34-3.48H22.41a8,8,0,0,1,7,4.11l2.31,4.17,9.92-18A8,8,0,0,1,48.6,0H63.69A7.33,7.33,0,0,1,70,3.46a7,7,0,0,1,.1,7L43.74,58.08A13.75,13.75,0,0,1,30.85,64.85Zm-6-10.63A7.41,7.41,0,0,0,27.22,57,7.75,7.75,0,0,0,32,58.6a7.38,7.38,0,0,0,6.31-3.71l0,0a.41.41,0,0,1,0-.09l.13-.24a7.73,7.73,0,0,0-.14-7.38l-6.68-12-6.64,12a7.65,7.65,0,0,0-.27,7A.54.54,0,0,1,24.85,54.22ZM35.29,28.6S44,44.36,44.09,44.48L64.63,7.4A.75.75,0,0,0,64,6.28H48.6a1.7,1.7,0,0,0-1.49.87Z"/></g></g></svg>