<?xml version="1.0" encoding="utf-8"?>
<svg version="1.1" id="Layer_1" xmlns="http://www.w3.org/2000/svg" xmlns:xlink="http://www.w3.org/1999/xlink" x="0px" y="0px"
	 width="20px" height="20px" viewBox="0 0 20 20" style="enable-background:new 0 0 20 20;" xml:space="preserve">
<style type="text/css">
	.st0{fill:#FFFFFF;}
</style>
<g>
	<path class="st0" d="M19.7,9.1l-2.3-0.9C17.2,8.2,17.1,8,17,7.8s-0.1-0.4,0-0.6L18,5c0.1-0.2,0-0.4-0.1-0.6l-1.3-1.3
		C16.4,3,16.2,3,16,3l-2.2,1c-0.2,0.1-0.4,0.1-0.6,0c-0.2-0.1-0.3-0.2-0.4-0.4l-0.9-2.3C11.8,1.1,11.6,1,11.4,1H9.6
		C9.4,1,9.2,1.1,9.1,1.3L8.2,3.6C8.2,3.8,8,3.9,7.8,4C7.6,4.1,7.4,4.1,7.2,4L5,3C4.8,3,4.6,3,4.4,3.1L3.1,4.4C3,4.6,3,4.8,3,5l1,2.2
		c0.1,0.2,0.1,0.4,0,0.6C3.9,8,3.8,8.2,3.6,8.2L1.3,9.1C1.1,9.2,1,9.4,1,9.6v1.8c0,0.2,0.1,0.4,0.3,0.5l2.2,0.9
		C3.8,12.8,3.9,13,4,13.2c0.1,0.2,0.1,0.4,0,0.6L3,16c-0.1,0.2,0,0.4,0.1,0.6l1.3,1.3C4.6,18,4.8,18,5,18l2.2-1
		c0.2-0.1,0.4-0.1,0.6,0c0.2,0.1,0.3,0.2,0.4,0.4l0.9,2.3C9.2,19.9,9.4,20,9.6,20h1.8c0.2,0,0.4-0.1,0.5-0.3l0.9-2.3
		c0.1-0.2,0.2-0.4,0.4-0.4c0.2-0.1,0.4-0.1,0.6,0l2.2,1c0.2,0.1,0.4,0,0.6-0.1l1.3-1.3C18,16.4,18,16.2,18,16l-1-2.2
		c-0.1-0.2-0.1-0.4,0-0.6s0.2-0.3,0.4-0.4l2.3-0.9c0.2-0.1,0.3-0.3,0.3-0.5V9.6C20,9.4,19.9,9.2,19.7,9.1z M19,11.1l-1.9,0.8
		c-0.5,0.2-0.8,0.5-1,1s-0.2,0.9,0,1.4l0.8,1.9l-0.8,0.8l-1.9-0.8c-0.4-0.2-0.9-0.2-1.4,0c-0.4,0.2-0.8,0.5-1,1L11.1,19H9.9
		l-0.8-1.9c-0.2-0.5-0.5-0.8-1-1c-0.4-0.2-0.9-0.2-1.4,0l-1.9,0.8l-0.8-0.8l0.8-1.9c0.2-0.4,0.2-0.9,0-1.4s-0.5-0.8-1-1L2,11.1V9.9
		l1.9-0.8c0.5-0.2,0.8-0.5,1-1s0.2-0.9,0-1.4L4.1,4.9l0.8-0.8l1.9,0.8c0.4,0.2,0.9,0.2,1.4,0c0.4-0.2,0.8-0.5,1-1L9.9,2h1.1l0.8,1.9
		c0.2,0.5,0.5,0.8,1,1c0.4,0.2,0.9,0.2,1.4,0l1.9-0.8l0.8,0.8l-0.8,1.9c-0.2,0.4-0.2,0.9,0,1.4s0.5,0.8,1,1L19,9.9V11.1z"/>
	<path class="st0" d="M10.5,7C8.6,7,7,8.6,7,10.5S8.6,14,10.5,14s3.5-1.6,3.5-3.5S12.4,7,10.5,7z M10.5,13C9.1,13,8,11.9,8,10.5
		C8,9.1,9.1,8,10.5,8S13,9.1,13,10.5C13,11.9,11.9,13,10.5,13z"/>
</g>
</svg>
