<?xml version="1.0" encoding="utf-8"?>
<svg version="1.1" id="Layer_1" xmlns="http://www.w3.org/2000/svg" xmlns:xlink="http://www.w3.org/1999/xlink" x="0px" y="0px"
	 width="20px" height="20px" viewBox="0 0 20 20" style="enable-background:new 0 0 20 20;" xml:space="preserve">
<style type="text/css">
	.st0{fill:#FFFFFF;}
</style>
<g>
	<path class="st0" d="M18.5,4H12V1.5C12,1.2,11.8,1,11.5,1h-10C1.2,1,1,1.2,1,1.5v17C1,18.8,1.2,19,1.5,19h3h4h3h7
		c0.3,0,0.5-0.2,0.5-0.5v-14C19,4.2,18.8,4,18.5,4z M2,2h9v2.5V18H9v-3.5C9,14.2,8.8,14,8.5,14h-4C4.2,14,4,14.2,4,14.5V18H2V2z
		 M5,18v-3h3v3H5z M18,18h-6V5h6V18z"/>
	<path class="st0" d="M8.3,11h0.5C8.9,11,9,10.9,9,10.8v-0.5C9,10.1,8.9,10,8.8,10H8.3C8.1,10,8,10.1,8,10.3v0.5
		C8,10.9,8.1,11,8.3,11z"/>
	<path class="st0" d="M8.3,8h0.5C8.9,8,9,7.9,9,7.8V7.3C9,7.1,8.9,7,8.8,7H8.3C8.1,7,8,7.1,8,7.3v0.5C8,7.9,8.1,8,8.3,8z"/>
	<path class="st0" d="M4.3,11h0.5C4.9,11,5,10.9,5,10.8v-0.5C5,10.1,4.9,10,4.8,10H4.3C4.1,10,4,10.1,4,10.3v0.5
		C4,10.9,4.1,11,4.3,11z"/>
	<path class="st0" d="M4.3,8h0.5C4.9,8,5,7.9,5,7.8V7.3C5,7.1,4.9,7,4.8,7H4.3C4.1,7,4,7.1,4,7.3v0.5C4,7.9,4.1,8,4.3,8z"/>
	<path class="st0" d="M4.3,5h0.5C4.9,5,5,4.9,5,4.8V4.3C5,4.1,4.9,4,4.8,4H4.3C4.1,4,4,4.1,4,4.3v0.5C4,4.9,4.1,5,4.3,5z"/>
	<path class="st0" d="M8.3,5h0.5C8.9,5,9,4.9,9,4.8V4.3C9,4.1,8.9,4,8.8,4H8.3C8.1,4,8,4.1,8,4.3v0.5C8,4.9,8.1,5,8.3,5z"/>
	<path class="st0" d="M14.3,14h0.5c0.1,0,0.3-0.1,0.3-0.3v-0.5c0-0.1-0.1-0.3-0.3-0.3h-0.5c-0.1,0-0.3,0.1-0.3,0.3v0.5
		C14,13.9,14.1,14,14.3,14z"/>
	<path class="st0" d="M14.3,11h0.5c0.1,0,0.3-0.1,0.3-0.3v-0.5c0-0.1-0.1-0.3-0.3-0.3h-0.5c-0.1,0-0.3,0.1-0.3,0.3v0.5
		C14,10.9,14.1,11,14.3,11z"/>
	<path class="st0" d="M14.3,8h0.5C14.9,8,15,7.9,15,7.8V7.3C15,7.1,14.9,7,14.8,7h-0.5C14.1,7,14,7.1,14,7.3v0.5
		C14,7.9,14.1,8,14.3,8z"/>
</g>
</svg>
