<?xml version="1.0" encoding="utf-8"?>
<svg version="1.1" id="Layer_1" xmlns="http://www.w3.org/2000/svg" xmlns:xlink="http://www.w3.org/1999/xlink" x="0px" y="0px"
	 width="20px" height="20px" viewBox="0 0 20 20" style="enable-background:new 0 0 20 20;" xml:space="preserve">
<style type="text/css">
	.st0{fill:#c238eb;}
</style>
<g>
	<path class="st0" d="M10,6.8c0.7,0.4,1.5,0.6,2.2,0.6c1.5,0,2.9-0.8,3.6-1.4c0.2-0.2,0.2-0.5,0-0.7c-1.5-1.8-3-1.8-3.9-1.6
		c0-0.7-0.2-1.4-0.5-2c-0.2-0.5-0.6-1-1-1.5C10.2,0.1,9.9,0,9.7,0.2c-0.5,0.4-1,0.9-1.2,1.5C8.1,2.4,8,3.1,8,3.7
		C7.1,3.5,5.7,3.6,4.2,5.3C4,5.5,4.1,5.8,4.3,6C5.3,6.9,7.7,8.2,10,6.8z M8.4,4.9C8.6,5,8.8,5,8.9,4.8c0.2-0.1,0.2-0.3,0.2-0.5
		C9,3.9,8.9,3,9.3,2.1c0.1-0.3,0.4-0.6,0.6-0.8c0.2,0.3,0.4,0.5,0.5,0.8c0.4,0.9,0.4,1.7,0.4,2.3c0,0.2,0.1,0.4,0.2,0.5
		c0.2,0.1,0.4,0.1,0.5,0c0.1,0,1.5-0.8,3.1,0.7c-0.8,0.5-2.6,1.5-4.4,0.3c-0.2-0.1-0.4-0.1-0.6,0C7.9,7.1,6.1,6.1,5.3,5.6
		C6.9,4,8.3,4.8,8.4,4.9z"/>
	<path class="st0" d="M6,8c-1.1,0-2,0.9-2,2s0.9,2,2,2s2-0.9,2-2S7.1,8,6,8z M6,11c-0.6,0-1-0.4-1-1s0.4-1,1-1s1,0.4,1,1
		S6.6,11,6,11z"/>
	<path class="st0" d="M10,8c-1.1,0-2,0.9-2,2s0.9,2,2,2s2-0.9,2-2S11.1,8,10,8z M10,11c-0.6,0-1-0.4-1-1s0.4-1,1-1s1,0.4,1,1
		S10.6,11,10,11z"/>
	<path class="st0" d="M14,8c-1.1,0-2,0.9-2,2s0.9,2,2,2s2-0.9,2-2S15.1,8,14,8z M14,11c-0.6,0-1-0.4-1-1s0.4-1,1-1s1,0.4,1,1
		S14.6,11,14,11z"/>
	<path class="st0" d="M8,12c-1.1,0-2,0.9-2,2s0.9,2,2,2s2-0.9,2-2S9.1,12,8,12z M8,15c-0.6,0-1-0.4-1-1s0.4-1,1-1s1,0.4,1,1
		S8.6,15,8,15z"/>
	<path class="st0" d="M12,12c-1.1,0-2,0.9-2,2s0.9,2,2,2s2-0.9,2-2S13.1,12,12,12z M12,15c-0.6,0-1-0.4-1-1s0.4-1,1-1s1,0.4,1,1
		S12.6,15,12,15z"/>
	<path class="st0" d="M10,16c-1.1,0-2,0.9-2,2c0,1.1,0.9,2,2,2s2-0.9,2-2C12,16.9,11.1,16,10,16z M10,19c-0.6,0-1-0.4-1-1s0.4-1,1-1
		s1,0.4,1,1S10.6,19,10,19z"/>
</g>
</svg>
