<?xml version="1.0" encoding="utf-8"?>
<svg version="1.1" id="Layer_1" xmlns="http://www.w3.org/2000/svg" xmlns:xlink="http://www.w3.org/1999/xlink" x="0px" y="0px"
	 width="20px" height="20px" viewBox="0 0 20 20" style="enable-background:new 0 0 20 20;" xml:space="preserve">
<style type="text/css">
	.st0{fill:#FFFFFF;}
</style>
<g>
	<path class="st0" d="M3,18V6.5C3,5.7,3.7,5,4.5,5C4.8,5,5,4.8,5,4.5V3V2V1h1v3h1V0.5C7,0.2,6.8,0,6.5,0h-2C4.2,0,4,0.2,4,0.5V2H2.5
		C2.2,2,2,2.2,2,2.5V5C0.9,5.3,0,6.3,0,7.5v11C0,18.8,0.2,19,0.5,19h2H5h2v-1H5H3z M3,3h1v1C3.6,4.1,3.3,4.3,3,4.5V3z M2,6.5V18H1
		V7.5c0-0.7,0.4-1.2,1-1.4C2,6.2,2,6.4,2,6.5z"/>
	<path class="st0" d="M12.5,4C8.4,4,5,7.4,5,11.5S8.4,19,12.5,19s7.5-3.4,7.5-7.5S16.6,4,12.5,4z M12.5,18C8.9,18,6,15.1,6,11.5
		S8.9,5,12.5,5S19,7.9,19,11.5S16.1,18,12.5,18z"/>
	<path class="st0" d="M13.3,11h-2c-0.3,0-0.5-0.2-0.5-0.5S11,10,11.3,10H12h1h0.5c0.3,0,0.5-0.2,0.5-0.5S13.8,9,13.5,9H13V8h-1v1
		h-0.8c-0.8,0-1.5,0.7-1.5,1.5s0.7,1.5,1.5,1.5h2c0.3,0,0.5,0.2,0.5,0.5S13.5,13,13.3,13H13h-1h-1.5c-0.3,0-0.5,0.2-0.5,0.5
		s0.2,0.5,0.5,0.5H12v1h1v-1h0.3c0.8,0,1.5-0.7,1.5-1.5S14.1,11,13.3,11z"/>
</g>
</svg>
