<?xml version="1.0" encoding="utf-8"?>
<svg version="1.1" id="Layer_1" xmlns="http://www.w3.org/2000/svg" xmlns:xlink="http://www.w3.org/1999/xlink" x="0px" y="0px"
	 width="20px" height="20px" viewBox="0 0 20 20" style="enable-background:new 0 0 20 20;" xml:space="preserve">
<style type="text/css">
	.st0{fill:#FFFFFF;}
</style>
<g>
	<rect x="8" y="9" class="st0" width="6" height="1"/>
	<rect x="8" y="11" class="st0" width="6" height="1"/>
	<path class="st0" d="M17.9,4.5l-4.3-4.3C13.4,0.1,13.3,0,13.2,0H4.5C4.2,0,4,0.2,4,0.5v16C4,16.8,4.2,17,4.5,17h13
		c0.3,0,0.5-0.2,0.5-0.5V4.8C18,4.7,17.9,4.5,17.9,4.5z M17,5h-4V1L17,5z M17,16H5V1h7v4.5C12,5.8,12.2,6,12.5,6H17V16z"/>
	<path class="st0" d="M3,3H2v15.5C2,18.8,2.2,19,2.5,19H15v-1H3V3z"/>
</g>
</svg>
