<?xml version="1.0" encoding="utf-8"?>
<svg version="1.1" id="Layer_1" xmlns="http://www.w3.org/2000/svg" xmlns:xlink="http://www.w3.org/1999/xlink" x="0px" y="0px"
	 viewBox="0 0 130 130" style="enable-background:new 0 0 130 130;" xml:space="preserve">
<style type="text/css">
	.st0{display:none;}
	.st1{display:inline;fill:#697279;}
	.st2{fill:#697279;}
</style>
<g class="st0">
	<path class="st1" d="M120.2,76V54h-12.5c-1.3-5-3.4-9.6-6.2-13.8l8.4-8.4L98.2,20.1l-8.4,8.4c-4.1-2.8-8.8-4.9-13.8-6.2V9.8H54
		v12.5c-5,1.3-9.6,3.4-13.8,6.2l-8.4-8.4L20.1,31.8l8.4,8.4c-2.8,4.1-4.9,8.8-6.2,13.8H9.8V76h12.5c1.3,5,3.4,9.6,6.2,13.8l-8.4,8.4
		l11.7,11.7l8.4-8.4c4.1,2.8,8.8,4.9,13.8,6.2v12.5H76v-12.5c5-1.3,9.6-3.4,13.8-6.2l8.4,8.4l11.7-11.7l-8.4-8.4
		c2.8-4.1,4.9-8.8,6.2-13.8H120.2z M65,98.1c-18.3,0-33.1-14.9-33.1-33.1c0-18.3,14.9-33.1,33.1-33.1S98.1,46.7,98.1,65
		C98.1,83.3,83.3,98.1,65,98.1z"/>
</g>
<path class="st2" d="M25.4,87.7c8.2,8.1,19,12.6,30.5,12.6c6.5,0,12.8-1.5,18.6-4.2l18.7,18.7c2.8,2.8,6.5,4.2,10.2,4.2
	c3.7,0,7.4-1.4,10.2-4.2c5.6-5.6,5.6-14.7,0-20.3L94.8,75.8c7.6-16,4.9-35.8-8.4-49.1c-8.1-8.2-19-12.6-30.5-12.6
	s-22.4,4.5-30.5,12.6C8.6,43.5,8.6,70.9,25.4,87.7z M82.8,90.9c1.2-1,2.5-2.1,3.6-3.2c1.1-1.1,2.2-2.4,3.2-3.6l17.1,17.1
	c1.9,1.9,1.9,4.9,0,6.8c-1.9,1.9-4.9,1.9-6.8,0L82.8,90.9z M32.2,33.5c6.3-6.3,14.8-9.8,23.7-9.8s17.4,3.5,23.7,9.8
	c13.1,13.1,13.1,34.4,0,47.4c-6.3,6.3-14.8,9.8-23.7,9.8s-17.4-3.5-23.7-9.8C19.1,67.9,19.1,46.6,32.2,33.5z"/>
</svg>
