<?xml version="1.0" encoding="utf-8"?>
<svg version="1.1" id="Layer_1" xmlns="http://www.w3.org/2000/svg" xmlns:xlink="http://www.w3.org/1999/xlink" x="0px" y="0px"
	 width="20px" height="20px" viewBox="0 0 20 20" style="enable-background:new 0 0 20 20;" xml:space="preserve">
<style type="text/css">
	.st0{fill:#FFFFFF;}
</style>
<g>
	<path class="st0" d="M11,5.5C11,4.7,10.3,4,9.5,4S8,4.7,8,5.5S8.7,7,9.5,7S11,6.3,11,5.5z M9,5.5C9,5.2,9.2,5,9.5,5S10,5.2,10,5.5
		S9.8,6,9.5,6S9,5.8,9,5.5z"/>
	<path class="st0" d="M11.6,13.1c1.3-2.5,2.5-5.1,2.9-6.9c0-0.1,0.1-0.5,0.1-1c0-2.8-2.3-5.1-5.1-5.1s-5.1,2.2-5.1,5
		c0,0.6,0.1,0.9,0.1,1C4.9,8,6.1,10.6,7.4,13C4.8,13.4,3,14.6,3,16c0,1.8,2.8,3.2,6.5,3.2S16,17.8,16,16
		C16,14.7,14.3,13.5,11.6,13.1z M5.4,5.1C5.4,2.9,7.2,1,9.5,1s4.1,1.9,4.1,4.1c0,0.4,0,0.7-0.1,0.8c-0.5,1.9-1.9,5.1-4.1,9
		c-2.2-4-3.6-7.1-4.1-9C5.4,5.9,5.4,5.6,5.4,5.1z M9.5,18.3c-3.2,0-5.5-1.2-5.5-2.2c0-0.8,1.4-1.8,3.9-2.1c0.4,0.8,0.8,1.5,1.2,2.2
		c0.1,0.2,0.3,0.3,0.4,0.3s0.3-0.1,0.4-0.3c0.4-0.7,0.8-1.4,1.2-2.2c2.5,0.3,3.9,1.3,3.9,2.1C15,17.2,12.7,18.3,9.5,18.3z"/>
</g>
</svg>
