<?xml version="1.0" encoding="utf-8"?>
<svg version="1.1" id="Layer_1" xmlns="http://www.w3.org/2000/svg" xmlns:xlink="http://www.w3.org/1999/xlink" x="0px" y="0px"
	 width="20px" height="20px" viewBox="0 0 20 20" style="enable-background:new 0 0 20 20;" xml:space="preserve">
<style type="text/css">
	.st0{fill:#FFFFFF;}
</style>
<g>
	<path class="st0" d="M10.5,8C12.4,8,14,6.4,14,4.5S12.4,1,10.5,1S7,2.6,7,4.5S8.6,8,10.5,8z M10.5,2C11.9,2,13,3.1,13,4.5
		S11.9,7,10.5,7C9.1,7,8,5.9,8,4.5S9.1,2,10.5,2z"/>
	<path class="st0" d="M10.5,9C5.3,9,1,13.3,1,18.5C1,18.8,1.2,19,1.5,19h18c0.3,0,0.5-0.2,0.5-0.5C20,13.3,15.7,9,10.5,9z M2,18
		c0.3-4.5,4-8,8.5-8c4.5,0,8.2,3.5,8.5,8H2z"/>
</g>
</svg>
